<svg width="1024" height="1024" viewBox="0 0 1024 1024" fill="none" xmlns="http://www.w3.org/2000/svg">
  <defs>
    <linearGradient id="bg" x1="0" y1="0" x2="1024" y2="1024" gradientUnits="userSpaceOnUse">
      <stop offset="0" stop-color="#6366f1"/>
      <stop offset="1" stop-color="#8b5cf6"/>
    </linearGradient>
    <linearGradient id="sheen" x1="512" y1="120" x2="512" y2="640" gradientUnits="userSpaceOnUse">
      <stop offset="0" stop-color="#ffffff" stop-opacity="0.25"/>
      <stop offset="1" stop-color="#ffffff" stop-opacity="0"/>
    </linearGradient>
    <linearGradient id="paper" x1="360" y1="240" x2="700" y2="740" gradientUnits="userSpaceOnUse">
      <stop offset="0" stop-color="#ffffff"/>
      <stop offset="1" stop-color="#e6e8fb"/>
    </linearGradient>
    <linearGradient id="arrow" x1="512" y1="440" x2="512" y2="680" gradientUnits="userSpaceOnUse">
      <stop offset="0" stop-color="#6366f1"/>
      <stop offset="1" stop-color="#8b5cf6"/>
    </linearGradient>
    <filter id="soft" x="-30%" y="-30%" width="160%" height="160%">
      <feGaussianBlur stdDeviation="22"/>
    </filter>
  </defs>

  <rect x="80" y="80" width="864" height="864" rx="200" fill="url(#bg)"/>
  <rect x="80" y="80" width="864" height="864" rx="200" fill="url(#sheen)"/>

  <path d="M372 262 h196 a24 24 0 0 1 17 7 l104 104 a24 24 0 0 1 7 17 v366 a40 40 0 0 1 -40 40 H372 a40 40 0 0 1 -40 -40 V302 a40 40 0 0 1 40 -40 Z"
        fill="#1e1b4b" fill-opacity="0.35" filter="url(#soft)"/>

  <path d="M372 250 h196 a24 24 0 0 1 17 7 l104 104 a24 24 0 0 1 7 17 v366 a40 40 0 0 1 -40 40 H372 a40 40 0 0 1 -40 -40 V290 a40 40 0 0 1 40 -40 Z"
        fill="url(#paper)"/>
  <path d="M566 253 v91 a20 20 0 0 0 20 20 h91 Z" fill="#c7d2fe"/>

  <g stroke="url(#arrow)" stroke-width="48" stroke-linecap="round" stroke-linejoin="round" fill="none">
    <line x1="512" y1="440" x2="512" y2="642"/>
    <polyline points="426,558 512,644 598,558"/>
  </g>
  <line x1="424" y1="712" x2="600" y2="712" stroke="#a5b4fc" stroke-width="42" stroke-linecap="round"/>
</svg>
